<mxfile host="app.diagrams.net" modified="2024-04-09T01:56:00.455Z" agent="Mozilla/5.0 (Windows NT 10.0; Win64; x64) AppleWebKit/537.36 (KHTML, like Gecko) Chrome/117.0.0.0 Safari/537.36" version="23.0.2" etag="ZlElDzH9ibY0B8woTfhy" type="github">
  <diagram name="第 1 页" id="NAw2PV9OsOV7qSKiSkjY">
    <mxGraphModel>
      <root>
        <mxCell id="0" />
        <mxCell id="1" parent="0" />
      </root>
    </mxGraphModel>
  </diagram>
</mxfile>
